<svg xmlns="http://www.w3.org/2000/svg" viewBox="0 0 71 71"><defs><style>.cls-1{fill:#fff;}</style></defs><title>Asset 15pro</title><g id="Layer_2" data-name="Layer 2"><g id="Layer_1-2" data-name="Layer 1"><path class="cls-1" d="M35.5,0A35.5,35.5,0,1,0,71,35.5,35.5,35.5,0,0,0,35.5,0Zm-.73,57.89a5.28,5.28,0,0,1,0-10.56,5.28,5.28,0,1,1,0,10.56ZM44.1,36.11l-2.32,1.71c-2.13,1.58-3.6,3.17-3.6,5.92H30.92a12.82,12.82,0,0,1-.24-2.69c0-2.87,1.16-6,4.64-8.6l3.11-2.32a5,5,0,0,0,2.19-4.27c0-2.38-1.77-4.7-5.43-4.7a5.58,5.58,0,0,0-5.61,5.74,8.9,8.9,0,0,0,.19,2.26l-8.55-.31A12.72,12.72,0,0,1,21,26.29c0-7.14,5.31-13.18,14.21-13.18C45.08,13.11,50,19,50,25.13,50,30,47.76,33.36,44.1,36.11Z"/></g></g></svg>